# xmcd
#
# Track frame offsets: 
#        150
#        13275
#        32307
#        54993
#        74388
#        87037
#        108963
#        123417
#        136601
#        159540
#        182457
#        214526
#        234477
#        257151
#        277039
#        293448
#        310070
#        326869
#        340613
#
# Disc length: 4790 seconds
#
# Revision: 36
# Processed by: cddbd v1.5.2PL0 Copyright (c) Steve Scherf et al.
# Submitted via: ExactAudioCopy v0.99pb4
#
DISCID=fe12b413
DTITLE=Eric Clapton - The Cream of Clapton
DYEAR=1995
DGENRE=Blues
TTITLE0=Cream - I Feel Free
TTITLE1=Cream - Sunshine of Your Love
TTITLE2=Cream - White Room
TTITLE3=Cream - Crossroads
TTITLE4=Cream - Badge
TTITLE5=Blind Faith - Presence of the Lord
TTITLE6=Blues Power
TTITLE7=After Midnight
TTITLE8=Let It Rain
TTITLE9=Derek and the Dominos - Bell Bottom Blues
TTITLE10=Derek and the Dominoes - Layla
TTITLE11=I Shot the Sheriff
TTITLE12=Let It Grow
TTITLE13=Knockin' on Heaven's Door
TTITLE14=Hello Old Friend
TTITLE15=Cocaine
TTITLE16=Wonderful Tonight
TTITLE17=Promises
TTITLE18=I Can't Stand It
EXTD=LABEL=PolydorID=31452 7116-2UPD=7 31452-7116-2 5 YEAR: 1995
EXTT0=from the album "Fresh Cream"
EXTT1=from the album "Disraeli Gears"
EXTT2=from the album "Wheels of Fire"
EXTT3=from the album "Wheels of Fire"
EXTT4=from the album "Goodbye"
EXTT5=from the album "Blind Faith"
EXTT6=from the album "Eric Clapton"
EXTT7=from the album "Eric Clapton"
EXTT8=from the album "Eric Clapton"
EXTT9=from the album "Layla and Other Assorted Love Songs"
EXTT10=from the album "Layla and Other Assorted Love Songs"
EXTT11=from the album "461 Ocean Boulevard"
EXTT12=from the album "461 Ocean Boulevard"
EXTT13=originally released as a single August 1975, used in the movie 
EXTT13=L
EXTT14=from the album "No Reason to Cry"
EXTT15=from the album "Slowhand"
EXTT16=from the album "Slowhand"
EXTT17=from the album "Backless"
EXTT18=from the album "Another Ticket"
PLAYORDER=
